# File created by Blade
# Date/Time:  Tue Jan 27 18:55:50 2015
# Frame Rate: 120.000 fps
#------------------------------------------------------
:FULLY-SPECIFIED
:DEGREES
1711
root 0.134367 31.700192 -4.652630 2.240595 -9.999953 -9.275008
Spine 2.974889 -6.537830 1.139587
Head 13.593398 -16.307628 8.200217
LeftShoulder -15.344968 16.425639 13.083537
LeftArm 4.492643 -37.454422 -76.806010
LeftForeArm 3.954710 -0.000000 105.190712
LeftHand -14.592429 -0.000000 22.625569
LeftHandThumb1 -26.253704 0.000000 33.147579
RightShoulder -11.672419 -2.557332 -6.831530
RightArm 8.899568 -33.135765 74.423859
RightForeArm -26.077644 -0.000000 17.985180
RightHand -13.376626 -0.000000 15.117627
RightHandThumb1 -24.326973 -0.000000 -32.862282
LeftUpLeg -4.853947 13.263754 -3.090500
LeftLeg 18.249766 -0.000000 -0.000000
LeftFoot -33.870368 26.744248 -24.200006
LeftToeBase 8.994557 -0.000000 -0.000000
RightUpLeg -69.309329 -37.310098 27.137687
RightLeg 94.520132 -0.000000 -0.000000
RightFoot -20.584496 -3.907889 39.555745
RightToeBase 7.535292 -0.000000 -0.000000
1712
root 0.170045 31.678068 -4.637904 2.056358 -10.639870 -8.896991
Spine 3.084086 -5.782465 0.822968
Head 13.623595 -16.275700 7.911888
LeftShoulder -15.423244 16.562041 12.931153
LeftArm 4.663083 -37.513532 -76.952700
LeftForeArm 3.940013 -0.000000 105.377639
LeftHand -14.600289 -0.000000 22.624432
LeftHandThumb1 -26.253704 0.000000 33.147579
RightShoulder -11.512610 -2.372327 -7.034620
RightArm 8.873081 -33.090104 74.573531
RightForeArm -26.112837 -0.000000 17.517842
RightHand -13.549905 0.000000 14.954171
RightHandThumb1 -24.326973 -0.000000 -32.862282
LeftUpLeg -4.528097 13.272387 -3.545333
LeftLeg 17.940169 -0.000000 -0.000000
LeftFoot -34.048232 27.133686 -24.480793
LeftToeBase 9.060928 -0.000000 -0.000000
RightUpLeg -71.007236 -38.024921 29.407735
RightLeg 94.326874 -0.000000 -0.000000
RightFoot -22.095412 -4.674115 39.748369
RightToeBase 7.739133 -0.000000 -0.000000
1713
root 0.201138 31.651734 -4.622432 1.898926 -11.303165 -8.483588
Spine 3.156566 -5.066909 0.455606
Head 13.627967 -16.199409 7.651525
LeftShoulder -15.597747 16.713095 12.792759
LeftArm 4.807801 -37.531653 -77.041795
LeftForeArm 3.969366 -0.000000 105.546735
LeftHand -14.637978 0.000000 22.733077
LeftHandThumb1 -26.253704 0.000000 33.147579
RightShoulder -11.280670 -2.287205 -7.228820
RightArm 8.835633 -32.829629 74.749763
RightForeArm -26.210555 0.000000 17.273925
RightHand -13.667068 -0.000000 14.695854
RightHandThumb1 -24.326973 -0.000000 -32.862282
LeftUpLeg -4.248593 13.296722 -4.043990
LeftLeg 17.634952 -0.000000 -0.000000
LeftFoot -34.245288 27.601630 -24.746791
LeftToeBase 9.025826 -0.000000 -0.000000
RightUpLeg -72.667576 -38.561559 31.525288
RightLeg 94.207483 -0.000000 -0.000000
RightFoot -23.081898 -4.993825 39.852818
RightToeBase 7.633668 -0.000000 -0.000000
1714
root 0.229694 31.624055 -4.611785 1.753391 -12.013903 -8.099703
Spine 3.248719 -4.387177 0.121112
Head 13.569483 -16.036245 7.400593
LeftShoulder -15.788451 16.660543 12.647187
LeftArm 4.618259 -37.599992 -76.857698
LeftForeArm 3.843596 -0.000000 105.760069
LeftHand -14.616699 -0.000000 22.658453
LeftHandThumb1 -26.253704 0.000000 33.147579
RightShoulder -11.068338 -2.035424 -7.452668
RightArm 8.709699 -32.646316 74.942577
RightForeArm -26.152832 0.000000 17.117944
RightHand -13.814781 -0.000000 14.520081
RightHandThumb1 -24.326973 -0.000000 -32.862282
LeftUpLeg -4.016332 13.345977 -4.512520
LeftLeg 17.388137 -0.000000 -0.000000
LeftFoot -34.471271 28.019571 -25.005177
LeftToeBase 9.076461 -0.000000 -0.000000
RightUpLeg -74.290502 -38.981348 33.670808
RightLeg 94.079375 -0.000000 -0.000000
RightFoot -23.747148 -5.175732 39.706452
RightToeBase 7.605204 -0.000000 -0.000000
1715
root 0.257683 31.592486 -4.602211 1.621178 -12.682255 -7.681041
Spine 3.295951 -3.750304 -0.259541
Head 13.557356 -15.885224 7.160818
LeftShoulder -15.922926 16.646954 12.510633
LeftArm 4.387973 -37.725608 -76.617382
LeftForeArm 3.674078 0.000000 106.027148
LeftHand -14.634954 0.000000 22.664373
LeftHandThumb1 -26.253704 0.000000 33.147579
RightShoulder -10.830565 -1.848129 -7.664124
RightArm 8.591991 -32.261779 75.168602
RightForeArm -26.212688 -0.000000 17.044063
RightHand -13.940449 -0.000000 14.365615
RightHandThumb1 -24.326973 -0.000000 -32.862282
LeftUpLeg -3.828346 13.272465 -5.016179
LeftLeg 17.170892 -0.000000 -0.000000
LeftFoot -34.749249 28.476730 -25.326410
LeftToeBase 9.097733 -0.000000 -0.000000
RightUpLeg -75.910020 -39.332599 35.725673
RightLeg 93.986676 -0.000000 -0.000000
RightFoot -23.988250 -4.990720 39.612913
RightToeBase 7.492520 -0.000000 -0.000000
1716
root 0.283889 31.560772 -4.594522 1.453261 -13.426851 -7.277824
Spine 3.392049 -3.083773 -0.633253
Head 13.528534 -15.713683 6.928708
LeftShoulder -16.125993 16.772853 12.312245
LeftArm 4.342352 -37.872735 -76.469048
LeftForeArm 3.575616 0.000000 106.293110
LeftHand -14.627596 -0.000000 22.474257
LeftHandThumb1 -26.253704 0.000000 33.147579
RightShoulder -10.663890 -1.774148 -7.824277
RightArm 8.776499 -32.094400 75.170019
RightForeArm -26.097495 -0.000000 17.002869
RightHand -14.112304 -0.000000 14.035339
RightHandThumb1 -24.326973 -0.000000 -32.862282
LeftUpLeg -3.651575 13.378285 -5.494041
LeftLeg 17.051126 -0.000000 -0.000000
LeftFoot -34.984738 28.816729 -25.575219
LeftToeBase 8.964067 -0.000000 -0.000000
RightUpLeg -77.345056 -39.537093 37.649364
RightLeg 93.894833 -0.000000 -0.000000
RightFoot -24.128896 -4.735988 39.227274
RightToeBase 8.030782 -0.000000 -0.000000
